<svg xmlns="http://www.w3.org/2000/svg" viewBox="0 0 500 500">


  <g fill="none" fill-rule="evenodd">
    <path fill="#18d91b" fill-rule="nonzero"
      d="M119.022 67.723c2.57 3.073 38.802 9.163 47.546 6.118l5.226-1.821c5.42-1.812 8.553-2.283 10.335 1.15 2.262 4.414 13.213-5.391 20.365-7.123 7.123-1.676 14.219 11.202 13.27 19.667-.95 8.492-3.577 5.754-4.191 10.894-.67 5.085 4.833 5.085 4.833 8.102 0 2.537-3.356 2.262-5.962 3.474l-1.441.94c-2.123 1.9-4.39 2.28-7.37 1.311l-2.38-.976c-4.19-2.04-5.503.698-11.342 5.42-5.06 4.155-4.238 7.006-4.814 13.343l-.354 2.943c-1.285 8.437 2.905 6.453 8.102 10.169 5.168 3.743 9.386 7.458 16.482 7.458 7.151 0 5.224 6.789 5.224 11.175 0 4.47 1.927 3.771 5.81 4.078 3.855.391 0-11.872 3.855-13.884 3.911-2.011 1.313-8.129-1.592-13.912-2.538-4.932.445-11.384 1.155-15.924l.13-2.094c-.307-4.414 4.218-6.118 8.744-4.75 4.498 1.342 7.124 2.068 10.336 5.085l2.059 2.024c1.241 1.395 1.609 2.55 3.445 7.139 2.598 6.481 7.43-.307 9.693-5.42 2.263-5.084 5.532 1.341 8.437 8.828l2.123 5.302c1.612 3.764 3.209 6.423 7.598 11.99 5.378 6.82 9.259 20.912 12.316 28.184l1.261 2.657c3.213 5.755.643 7.152-3.24 6.118-3.374-.904-12.693 3.367-16.71 5.61l-1.365.816c-2.654 1.76-9.721 4.749-14.275 8.157l-5.86 4.588c-1.822 1.355-3.694 2.535-6.152 3.541-4.833 2.067-5.476 6.453-9.359 13.94-3.827 7.459-12.291 14.61-13.577 19.974-1.285 5.392.67 11.845-2.905 12.878-3.604 1.034-5.838-7.458-8.744-10.503-2.933-3.045-12.655-5.057-24.276-1.677-11.677 3.409-3.883 21.734-2.263 26.092 1.593 4.47 12.6-4.33 15.84-7.738 3.24-3.408 5.81 1.648 6.174 6.425.307 4.75-1.956 10.17 2.57 11.175 4.525 1.005 6.146 2.011 9.358 9.163 3.269 7.095 11.705 4.386 17.823 0 6.202-4.414 32.015 4.078 35.926 6.118 3.883 2.039 11.314 3.38 15.169 8.464 3.939 5.084 19.806 19.36 20.756 19.974.978.699 24.919 4.442 31.428 9.554 6.453 5.14-2.906 25.142-5.504 35.311-2.626 10.14-10.699 16.566-14.247 19.276-3.548 2.737-30.143 35.31-34.305 40.06-4.218 4.749-17.795 15.588-21.064 19.666-2.677 3.353-3.588 6.065-3.058 9.996l.488 2.52c1.05 4.335 1.26 6.937-.042 10.25l-1.27 2.656c-2.599 4.721-2.906 11.146-.643 16.258 2.29 5.085 6.146 5.448 1.313 6.76a7.56 7.56 0 0 1-1.447.266l-.408.01-1.284.01c-5.514-.323-13.914-4.217-19.21-13.136-5.915-9.96.376-33.302.949-43.364l-.025-4.987c.374-11.419 5.637-42.554 6.814-50.262 1.286-8.492-4.162-14.582-9.665-18.326-5.532-3.715-12.32-20.365-15.588-26.12-2.295-4.13-1.625-8.417-.24-12.76l1.86-5.23c2.29-6.118 3.268-11.538.978-15.616-1.94-3.496-10.304-8.49-15.504-11.13l-2.291-1.106c-4.498-2.067-8.102-4.414-12.292-8.465-4.163-4.134-9.666-4.777-20.7-7.151-11.007-2.347-17.824-15.924-20.366-20.365-2.626-4.414-2.626 1.704-3.603 7.822-.922 6.118-13.214-19.667-25.226-33.914-11.901-14.275-12.879-38.999-12.264-46.457.584-6.781-7.675-21.135-17.912-28.054l-3.124-1.838c-11.621-5.754-13.577-15.923-17.124-22.684-3.194-6.11-12.677-6.72-20-2.321l-2.35 1.651c-3.409 2.782-7.501 3.793-12.184 3.679 13.83-25.934 32.19-49.084 54.023-68.4a4.74 4.74 0 0 1 1.825-.062c3.329.575 13.328 1.416 18.14.15l1.918-.82c3.24-2.375 9.415 2.01 9.415 2.01Zm326.932 153.702c10.029 4.051 6.146 9.806 14.582 13.884 8.353 4.08 16.454-3.408 23.913.671 3.965 2.199 7.304 2.62 10.246 1.704.203 4.08.305 8.186.305 12.316 0 50.41-15.224 97.263-41.325 136.214l-3.186-16.161c-3.317-15.962-7.133-32.659-9.368-36.8l-2.591-4.875c-2.022-4.08-2.284-6.3-.314-11.412 2.57-6.76-11.342-8.8-34.333-5.392-22.964 3.408-30.06-30.534-30.06-43.077 0-10.613 13.662-28.007 19.625-35.173l2.361-2.792c2.905-3.352 3.213-4.078 10.336-6.09l5.93-1.488c9.787-2.208 25.9-4.791 33.879-1.529Zm24.43-78.584a243.322 243.322 0 0 1 22.753 76.792c-3.564-.705-7.384-1.459-9.33-2.314-3.827-1.676-5.113-5.783-6.425-.363-1.286 5.447-7.767 2.095-8.744.363l-1.5-2.293c-1.319-1.736-3.138-3.48-4.646-2.791-2.263 1.005-5.504 3.715-9.359 6.09-3.883 2.374-.67-4.75.308-7.795.977-3.045-14.583-11.537-21.036-11.872-6.453-.308-9.386 6.425-11.984 12.543-2.57 6.118-12.572 8.772-17.823 11.537-5.14 2.71-9.359-5.084-10.644-9.163-1.285-4.078 1.285-7.486 1.928-13.213.642-5.755 10.364-4.777 16.174-4.414 4.843.28 1.382-7.473-2.331-12.99l-2.194-2.961c-4.19-5.057 3.24-3.66 9.358-5.392 5.378-1.491 13.001-10.233 16.77-13.986l1.36-1.267c2.962-2.374 4.526-4.749 7.096-5.755 2.654-1.033 11.035 3.744 18.801 4.079 5.177.224 7.61-3.911 9.328-8.505Zm-28.59-45.303a245.407 245.407 0 0 1 22.985 34.491c-2.42 1.254-3.463 6.105-6.506 12.405-3.883 8.13-11.649 2.068-12.934.364-1.285-1.732-2.235-6.51-3.24-10.895-1.006-4.358-5.168-3.353-13.298-11.147-6.932-6.692 4.034-15.856 12.986-25.21Zm-110.91-78.872a243.681 243.681 0 0 1 37.112 16.568l-.486.977c-2.57 5.113-.978 12.236.699 21.092 1.44 7.797-2.484 10.275-6.571 14.3l-1.53 1.595c-4.526 5.14-25.199 19.36-32.658 23.774-7.459 4.386-7.459 10.867-10.364 19.666l-2.93 9.774c-1.097 3.626-2.166 6.274-4.193 7.854-3.13 2.37-2.515-3.043-5.812-4.883l-1.675-.537c-5.168-.698-11.314-15.253-16.454-26.79-4.644-10.256-4.41-19.165-3.142-24.118l.516-1.667c1.62-4.386 2.262-10.168-.336-13.884-2.57-3.743-5.503-.363-4.525-9.89.652-6.365-1.89-19.998-3.63-28.306l-1.203-5.523Z" />
    <circle cx="250" cy="250" r="230" stroke="#1291e6" stroke-width="30" />
  </g>
</svg>