<svg xmlns="http://www.w3.org/2000/svg">
  <symbol id="light">
    <path fill-rule="evenodd"
      d="M10.975 1.275a1.5 1.5 0 0 1 2.05 0l2.326 2.176a.5.5 0 0 0 .325.135l3.184.105a1.5 1.5 0 0 1 1.45 1.45l.105 3.183a.5.5 0 0 0 .134.325l2.177 2.326a1.5 1.5 0 0 1 0 2.05l-2.177 2.326a.5.5 0 0 0-.134.325l-.106 3.183a1.5 1.5 0 0 1-1.45 1.45l-3.183.105a.5.5 0 0 0-.325.135l-2.326 2.177a1.5 1.5 0 0 1-2.05 0L8.65 20.549a.5.5 0 0 0-.325-.135L5.14 20.31a1.5 1.5 0 0 1-1.45-1.45l-.105-3.183a.5.5 0 0 0-.134-.325l-2.177-2.326a1.5 1.5 0 0 1 0-2.05l2.177-2.326a.5.5 0 0 0 .134-.325l.106-3.183a1.5 1.5 0 0 1 1.45-1.45l3.183-.105a.5.5 0 0 0 .325-.135l2.325-2.176Zm1.367.73a.5.5 0 0 0-.683 0L9.333 4.18a1.5 1.5 0 0 1-.975.404l-3.184.106a.5.5 0 0 0-.483.483l-.105 3.183a1.5 1.5 0 0 1-.404.976l-2.177 2.325a.5.5 0 0 0 0 .684l2.177 2.325a1.5 1.5 0 0 1 .404.976l.105 3.183a.5.5 0 0 0 .483.483l3.184.106a1.5 1.5 0 0 1 .975.404l2.326 2.176a.5.5 0 0 0 .683 0l2.326-2.176a1.5 1.5 0 0 1 .975-.404l3.184-.106a.5.5 0 0 0 .483-.483l.105-3.183a1.5 1.5 0 0 1 .404-.976l2.177-2.325a.5.5 0 0 0 0-.684l-2.177-2.325a1.5 1.5 0 0 1-.404-.976l-.105-3.183a.5.5 0 0 0-.483-.483l-3.184-.106a1.5 1.5 0 0 1-.975-.404l-2.326-2.176Z"
      clip-rule="evenodd" />
    <path fill-rule="evenodd"
      d="M10.2 6.655A6.492 6.492 0 0 1 13 12a6.493 6.493 0 0 1-2.8 5.345 5.5 5.5 0 1 0 0-10.69ZM8.79 6.09a6.5 6.5 0 1 1 0 11.82.5.5 0 0 1 0-.909 5.5 5.5 0 0 0 0-10.003.5.5 0 0 1 0-.908Z"
      clip-rule="evenodd" />
  </symbol>
  <symbol id="dark">
    <path fill-rule="evenodd"
      d="M10.634.91a2 2 0 0 1 2.733 0l2.326 2.176 3.183.105a2 2 0 0 1 1.933 1.933l.105 3.184 2.177 2.325a2 2 0 0 1 0 2.734l-2.177 2.325-.105 3.184a2 2 0 0 1-1.933 1.933l-3.183.105-2.326 2.176a2 2 0 0 1-2.733 0l-2.326-2.176-3.183-.105a2 2 0 0 1-1.933-1.933l-.105-3.184L.91 13.367a2 2 0 0 1 0-2.734l2.177-2.325.105-3.184a2 2 0 0 1 1.933-1.933l3.183-.105L10.634.91ZM8.583 5.634a7 7 0 1 1 0 12.73 1 1 0 0 1 0-1.818 5 5 0 0 0 0-9.094 1 1 0 0 1 0-1.818Z"
      clip-rule="evenodd" />
  </symbol>
  <symbol id="auto">
    <path
      d="M7.5 2c-1.79 1.15-3 3.18-3 5.5s1.21 4.35 3.03 5.5C4.46 13 2 10.54 2 7.5A5.5 5.5 0 0 1 7.5 2m11.57 1.5 1.43 1.43L4.93 20.5 3.5 19.07 19.07 3.5m-6.18 2.43L11.41 5 9.97 6l.42-1.7L9 3.24l1.75-.12.58-1.65L12 3.1l1.73.03-1.35 1.13.51 1.67m-3.3 3.61-1.16-.73-1.12.78.34-1.32-1.09-.83 1.36-.09.45-1.29.51 1.27 1.36.03-1.05.87.4 1.31M19 13.5a5.5 5.5 0 0 1-5.5 5.5c-1.22 0-2.35-.4-3.26-1.07l7.69-7.69c.67.91 1.07 2.04 1.07 3.26m-4.4 6.58 2.77-1.15-.24 3.35-2.53-2.2m4.33-2.7 1.15-2.77 2.2 2.54-3.35.23m1.15-4.96-1.14-2.78 3.34.24-2.2 2.54M9.63 18.93l2.77 1.15-2.53 2.19-.24-3.34Z" />
  </symbol>
</svg>