<svg xmlns="http://www.w3.org/2000/svg">
  <symbol id="galaxy">
    <path
      d="M30.66 46.66c-11.57 0-21-6.24-21-13.9C9.68 22 23 13.24 39.34 13.24S69 22 69 32.75a1 1 0 0 1-2 0c0-9.65-12.41-17.51-27.66-17.51S11.68 23.1 11.68 32.76c0 6.56 8.52 11.9 19 11.9s19-5.34 19-11.9c0-3.42-4.71-6.3-10.29-6.3s-10.29 2.88-10.29 6.3a1 1 0 0 1-2 0c0-4.58 5.52-8.3 12.29-8.3s12.29 3.72 12.29 8.3c-.05 7.66-9.46 13.9-21.02 13.9z" />
    <path
      d="M30.66 52.27C14.3 52.27 1 43.52 1 32.75a1 1 0 0 1 2 0c0 9.66 12.41 17.52 27.66 17.52s27.66-7.86 27.66-17.51c0-6.57-8.52-11.91-19-11.91s-19 5.34-19 11.91c0 3.41 4.71 6.29 10.29 6.29S41 36.17 41 32.76c0-.21-.61-.69-1.61-.69a1 1 0 0 1 0-2c2 0 3.61 1.18 3.61 2.69 0 4.57-5.52 8.29-12.29 8.29s-12.29-3.72-12.29-8.29c0-7.67 9.41-13.91 21-13.91s21 6.24 21 13.91C60.32 43.52 47 52.27 30.66 52.27z" />
    <path
      d="M30.66 35.44c-2 0-3.61-1.18-3.61-2.68a1 1 0 0 1 2 0c0 .2.61.68 1.61.68a1 1 0 0 1 0 2zM64.81 52.27a4.07 4.07 0 1 1 4.07-4.07 4.07 4.07 0 0 1-4.07 4.07zm0-6.14a2.07 2.07 0 1 0 2.07 2.07 2.07 2.07 0 0 0-2.07-2.07zM8.13 20.85a4.07 4.07 0 1 1 4.07-4.07 4.07 4.07 0 0 1-4.07 4.07zm0-6.13a2.07 2.07 0 1 0 2.07 2.06 2.07 2.07 0 0 0-2.07-2.06zM10.68 58.91a4.07 4.07 0 1 1 4.07-4.07 4.07 4.07 0 0 1-4.07 4.07zm0-6.14a2.07 2.07 0 1 0 2.07 2.07 2.07 2.07 0 0 0-2.07-2.07zM55 57.5h-4.49a1 1 0 1 1 0-2H55a1 1 0 0 1 0 2z" />
    <path
      d="M52.75 59.73a1 1 0 0 1-1-1v-4.46a1 1 0 0 1 2 0v4.46a1 1 0 0 1-1 1zM24.89 65a1 1 0 0 1-.7-.29 1 1 0 0 1 0-1.41l3.16-3.16a1 1 0 1 1 1.41 1.41l-3.16 3.13a1 1 0 0 1-.71.32z" />
    <path
      d="M28.05 65a1 1 0 0 1-.7-.29l-3.16-3.16a1 1 0 0 1 0-1.41 1 1 0 0 1 1.41 0l3.16 3.16a1 1 0 0 1 0 1.41 1 1 0 0 1-.71.29zM52.75 10.19a1 1 0 0 1-.71-.3 1 1 0 0 1 0-1.41l3.16-3.16a1 1 0 0 1 1.41 1.41l-3.16 3.16a1 1 0 0 1-.7.3z" />
    <path
      d="M55.9 10.19a1 1 0 0 1-.7-.3L52 6.73a1 1 0 0 1 1.41-1.41l3.16 3.16a1 1 0 0 1 0 1.41 1 1 0 0 1-.67.3zM24 11.68a1 1 0 0 1-1-1V6.21a1 1 0 0 1 2 0v4.47a1 1 0 0 1-1 1z" />
    <path d="M26.25 9.44h-4.47a1 1 0 1 1 0-2h4.47a1 1 0 1 1 0 2z" />
  </symbol>
</svg>